<svg width="257" height="48" viewBox="0 0 257 48" fill="none" xmlns="http://www.w3.org/2000/svg">
<g clip-path="url(#clip0_3088_267)">
<path d="M87.0252 26.2852H96.702C98.0612 26.2852 99.163 27.3953 99.163 28.7648C99.163 30.1343 98.0612 31.2445 96.702 31.2445H85.0302C84.848 31.2445 84.6718 31.31 84.5333 31.4293L81.0092 34.4671C80.4697 34.932 80.7961 35.8222 81.5061 35.8222H96.1174C96.1234 35.8222 96.1283 35.8173 96.1283 35.8113C96.1283 35.8048 96.1337 35.7998 96.14 35.8003C96.3238 35.8148 96.5097 35.8222 96.6973 35.8222C100.573 35.8222 103.715 32.6625 103.715 28.7648C103.715 25.0635 100.882 22.0277 97.2773 21.7312C97.271 21.7306 97.2663 21.7255 97.2663 21.7192C97.2663 21.7127 97.2611 21.7074 97.2545 21.7074H86.8297C85.4704 21.7074 84.3685 20.5973 84.3685 19.2278C84.3685 17.8584 85.4704 16.7481 86.8297 16.7481H98.4852C98.6771 16.7481 98.8621 16.6754 99.0031 16.5444L102.276 13.5068C102.788 13.0316 102.454 12.1704 101.758 12.1704H87.0252C87.0245 12.1704 87.0239 12.1709 87.0239 12.1716C87.0239 12.1723 87.0233 12.1729 87.0226 12.1729C86.9601 12.1712 86.8973 12.1704 86.8343 12.1704C82.9584 12.1704 79.8164 15.3301 79.8164 19.2278C79.8164 23.1254 82.9584 26.2852 86.8343 26.2852C86.8973 26.2852 86.9601 26.2843 87.0226 26.2826C87.0233 26.2826 87.0239 26.2832 87.0239 26.2839C87.0239 26.2846 87.0245 26.2852 87.0252 26.2852Z" fill="#969696"/>
<path d="M143.386 12.1704C142.963 12.1704 142.62 12.5151 142.62 12.9404V35.0522C142.62 35.4774 142.963 35.8222 143.386 35.8222H161.105C161.317 35.8222 161.52 35.7341 161.664 35.5788L163.882 33.2005C164.341 32.7087 163.994 31.9038 163.323 31.9038H147.852C147.43 31.9038 147.087 31.559 147.087 31.1337V12.9404C147.087 12.5151 146.743 12.1704 146.32 12.1704H143.386Z" fill="#969696"/>
<path fill-rule="evenodd" clip-rule="evenodd" d="M115.006 12.1704C115.005 12.1704 115.004 12.1713 115.004 12.1724C115.004 12.1736 115.003 12.1745 115.002 12.1745C112.737 12.2726 110.919 14.0951 110.821 16.3647C110.821 16.3658 110.82 16.3667 110.819 16.3667C110.818 16.3667 110.817 16.3669 110.817 16.3674C110.817 16.3678 110.816 16.3682 110.816 16.3687V31.2425C110.816 31.2435 110.817 31.2445 110.818 31.2445C110.82 31.2445 110.821 31.2454 110.82 31.2465C110.818 31.309 110.816 31.3719 110.816 31.4352C110.816 33.7935 112.673 35.7172 115.002 35.8181C115.003 35.8181 115.004 35.819 115.004 35.8201L115.004 35.821L115.004 35.8217C115.005 35.8221 115.005 35.8222 115.006 35.8222H131.084C131.085 35.8222 131.086 35.8213 131.086 35.8201V35.8189L131.087 35.8183L131.088 35.8181C133.417 35.7172 135.273 33.7935 135.273 31.4352C135.273 31.3719 135.272 31.309 135.27 31.2465C135.27 31.2454 135.271 31.2445 135.271 31.2445C135.272 31.2445 135.273 31.2435 135.273 31.2425V16.3687C135.273 16.3677 135.272 16.3667 135.271 16.3667C135.27 16.3667 135.27 16.3658 135.27 16.3647C135.171 14.0951 133.353 12.2726 131.088 12.1745C131.087 12.1745 131.086 12.1736 131.086 12.1724C131.086 12.1713 131.085 12.1704 131.084 12.1704H115.006ZM118.003 16.3667L118.001 16.3672V16.368C118.001 16.3687 118.002 16.3693 118 16.3693C116.585 16.431 115.448 17.5774 115.387 19.0051C115.387 19.0057 115.386 19.0062 115.386 19.0062C115.385 19.0062 115.385 19.0068 115.385 19.0075V28.3637C115.385 28.3644 115.385 28.3648 115.386 28.3648C115.386 28.3648 115.387 28.3654 115.387 28.3661C115.385 28.4056 115.385 28.4451 115.385 28.4849C115.385 29.9683 116.545 31.1784 118 31.2418C118.002 31.2419 118.001 31.2425 118.001 31.2431V31.2439L118.003 31.2442V31.2445H128.087V31.2444L128.089 31.2438V31.2431C128.089 31.2425 128.089 31.2419 128.09 31.2418C129.545 31.1784 130.706 29.9683 130.706 28.4849C130.706 28.4451 130.704 28.4056 130.703 28.3661V28.3659V28.3655L130.704 28.3648C130.704 28.3648 130.706 28.3644 130.706 28.3637V19.0075C130.706 19.0068 130.704 19.0062 130.704 19.0062C130.703 19.0062 130.703 19.0057 130.703 19.0051C130.641 17.5774 129.505 16.431 128.09 16.3693C128.089 16.3693 128.089 16.3687 128.089 16.368V16.3673L128.087 16.3668V16.3667H118.003Z" fill="#969696"/>
<path fill-rule="evenodd" clip-rule="evenodd" d="M189.648 35.0522C189.648 35.4774 189.988 35.8222 190.407 35.8222H193.413C193.832 35.8222 194.172 35.4774 194.172 35.0522V16.7501C194.172 16.7491 194.171 16.7481 194.17 16.7481V16.7479L194.169 16.7477C194.169 16.7472 194.169 16.7467 194.169 16.746C194.171 16.6835 194.172 16.6206 194.172 16.5574C194.172 14.1991 192.333 12.2754 190.027 12.1745C190.026 12.1745 190.025 12.1736 190.025 12.1724C190.025 12.1713 190.023 12.1704 190.022 12.1704H174.587C174.586 12.1704 174.585 12.1712 174.585 12.1724C174.585 12.1735 174.584 12.1744 174.582 12.1744C174.521 12.1717 174.459 12.1704 174.397 12.1704C172.002 12.1704 170.061 14.1345 170.061 16.5574C170.061 16.6206 170.062 16.6835 170.064 16.746C170.064 16.7472 170.064 16.7481 170.063 16.7481C170.062 16.7481 170.061 16.7491 170.061 16.7501V35.0522C170.061 35.4774 170.401 35.8222 170.82 35.8222H173.825C174.244 35.8222 174.585 35.4774 174.585 35.0522V27.4368C174.585 27.0114 174.925 26.6666 175.344 26.6666H188.887C189.307 26.6666 189.648 27.0114 189.648 27.4368V35.0522ZM174.585 22.4633V18.6556C174.585 17.1807 175.767 15.9852 177.224 15.9852H187.008C188.466 15.9852 189.648 17.1807 189.648 18.6556V22.4633C189.648 22.8886 189.307 23.2333 188.887 23.2333H175.345C174.925 23.2333 174.585 22.8886 174.585 22.4633Z" fill="#969696"/>
<path fill-rule="evenodd" clip-rule="evenodd" d="M253.082 35.8222C252.658 35.8222 252.315 35.4774 252.315 35.0522V27.4368C252.315 27.0114 251.972 26.6666 251.548 26.6666H237.855C237.431 26.6666 237.088 27.0114 237.088 27.4368V35.0522C237.088 35.4774 236.744 35.8222 236.321 35.8222H233.287C232.863 35.8222 232.52 35.4774 232.52 35.0522V16.7501V16.7497L232.521 16.749C232.521 16.7485 232.522 16.7481 232.522 16.7481C232.523 16.7481 232.524 16.7472 232.524 16.746C232.522 16.6835 232.52 16.6206 232.52 16.5574C232.52 14.1345 234.479 12.1704 236.898 12.1704C236.96 12.1704 237.024 12.1717 237.086 12.1744C237.087 12.1744 237.088 12.1735 237.088 12.1724C237.088 12.1712 237.088 12.1704 237.089 12.1704H252.694C252.695 12.1704 252.696 12.1713 252.696 12.1724C252.696 12.1736 252.696 12.1745 252.697 12.1745C255.026 12.2754 256.883 14.1991 256.883 16.5574C256.883 16.6206 256.881 16.6835 256.879 16.746C256.879 16.7472 256.88 16.7481 256.881 16.7481C256.881 16.7481 256.882 16.7484 256.882 16.7487C256.882 16.7491 256.883 16.7497 256.883 16.7501V35.0522C256.883 35.4774 256.539 35.8222 256.116 35.8222H253.082ZM237.088 18.6556V22.4633C237.088 22.8886 237.431 23.2333 237.855 23.2333H251.548C251.972 23.2333 252.315 22.8886 252.315 22.4633V18.6556C252.315 17.1807 251.122 15.9852 249.65 15.9852H239.752C238.281 15.9852 237.088 17.1807 237.088 18.6556Z" fill="#969696"/>
<path d="M205.483 12.1704C205.706 12.1704 205.918 12.2692 206.062 12.4408L219.539 28.5071C219.997 29.0517 220.877 28.7233 220.877 28.0074V12.9404C220.877 12.5151 221.216 12.1704 221.637 12.1704H224.641C225.061 12.1704 225.402 12.5151 225.402 12.9404V35.0522C225.402 35.4774 225.061 35.8222 224.641 35.8222H220.905C220.889 35.8222 220.877 35.8093 220.877 35.7934C220.877 35.7865 220.874 35.7797 220.87 35.7746L207.166 19.8202C206.704 19.2844 205.834 19.6153 205.834 20.3268V35.0522C205.834 35.4774 205.494 35.8222 205.075 35.8222H202.049C201.63 35.8222 201.29 35.4774 201.29 35.0522V12.9404C201.29 12.5151 201.63 12.1704 202.049 12.1704H205.483Z" fill="#969696"/>
<path d="M9.95264 36.6366C10.3274 36.2622 10.8354 36.0519 11.3651 36.0519H60.2406C61.131 36.0519 61.5767 37.1284 60.9469 37.7578L51.2891 47.4078C50.9145 47.7822 50.4065 47.9926 49.8767 47.9926H1.00118C0.110817 47.9926 -0.334895 46.916 0.294936 46.2866L9.95264 36.6366Z" fill="#969696"/>
<path d="M9.95264 0.58474C10.3274 0.210321 10.8354 0 11.3651 0H60.2406C61.131 0 61.5767 1.07665 60.9469 1.70597L51.2891 11.356C50.9145 11.7304 50.4065 11.9407 49.8767 11.9407H1.00118C0.110817 11.9407 -0.334895 10.8641 0.294936 10.2348L9.95264 0.58474Z" fill="#969696"/>
<path d="M51.2891 18.4958C50.9145 18.1215 50.4065 17.911 49.8767 17.911H1.00118C0.110817 17.911 -0.334895 18.9877 0.294936 19.6171L9.95264 29.2671C10.3274 29.6415 10.8354 29.8518 11.3651 29.8518H60.2406C61.131 29.8518 61.5767 28.7751 60.9469 28.1458L51.2891 18.4958Z" fill="#969696"/>
</g>
<defs>
<clipPath id="clip0_3088_267">
<rect width="256.9" height="48" fill="white"/>
</clipPath>
</defs>
</svg>
