<svg width="62" height="48" viewBox="0 0 62 48" fill="none" xmlns="http://www.w3.org/2000/svg">
<g clip-path="url(#clip0_3088_277)">
<path d="M9.95264 36.6366C10.3274 36.2622 10.8354 36.0519 11.3651 36.0519H60.2406C61.131 36.0519 61.5767 37.1284 60.9469 37.7578L51.2891 47.4078C50.9145 47.7822 50.4065 47.9926 49.8767 47.9926H1.00118C0.110817 47.9926 -0.334895 46.916 0.294936 46.2866L9.95264 36.6366Z" fill="#D9D9D9"/>
<path d="M9.95264 0.58474C10.3274 0.210321 10.8354 0 11.3651 0H60.2406C61.131 0 61.5767 1.07665 60.9469 1.70597L51.2891 11.356C50.9145 11.7304 50.4065 11.9407 49.8767 11.9407H1.00118C0.110817 11.9407 -0.334895 10.8641 0.294936 10.2348L9.95264 0.58474Z" fill="#D9D9D9"/>
<path d="M51.2891 18.4958C50.9145 18.1215 50.4065 17.911 49.8767 17.911H1.00118C0.110817 17.911 -0.334895 18.9877 0.294936 19.6171L9.95264 29.2671C10.3274 29.6415 10.8354 29.8518 11.3651 29.8518H60.2406C61.131 29.8518 61.5767 28.7751 60.9469 28.1458L51.2891 18.4958Z" fill="#D9D9D9"/>
</g>
<defs>
<clipPath id="clip0_3088_277">
<rect width="62" height="48" fill="white"/>
</clipPath>
</defs>
</svg>
